<?xml version="1.0" encoding="utf-8"?>
<!-- Generator: Adobe Illustrator 16.0.0, SVG Export Plug-In . SVG Version: 6.00 Build 0)  -->
<!DOCTYPE svg PUBLIC "-//W3C//DTD SVG 1.1//EN" "http://www.w3.org/Graphics/SVG/1.1/DTD/svg11.dtd">
<svg version="1.1" id="Layer_1" xmlns="http://www.w3.org/2000/svg" xmlns:xlink="http://www.w3.org/1999/xlink" x="0px" y="0px"
	 width="50px" height="50px" viewBox="0 0 50 50" enable-background="new 0 0 50 50" xml:space="preserve">
<g>
	<g>
		<path fill="#999999" d="M46.398,18.047c3.011,9.27-0.29,19.424-8.175,25.153c-7.884,5.73-18.562,5.73-26.448,0
			C3.89,37.472,0.59,27.317,3.604,18.047C6.615,8.777,15.252,2.502,24.999,2.502C34.745,2.502,43.385,8.777,46.398,18.047z
			 M24.999,4.529c-8.867,0-16.729,5.71-19.467,14.145C2.79,27.108,5.792,36.35,12.967,41.56c7.175,5.215,16.891,5.215,24.065,0
			c7.175-5.21,10.178-14.451,7.438-22.886C41.729,10.239,33.869,4.529,24.999,4.529z"/>
	</g>
	<g>
		<path fill="#999999" d="M21.872,23.648c-0.001,0.046-0.007,0.086-0.007,0.123c0,0.947,0.003,2.996,0.003,2.996s3.943,0,4.155,0
			c0,0.309-0.364,1.547-1.526,2.336c-0.678,0.459-1.445,0.673-2.254,0.723c-0.572,0.037-1.135-0.02-1.685-0.195
			c-1.732-0.556-3.022-2.124-3.2-4.034c-0.042-0.471-0.012-0.942,0.094-1.408c0.517-2.258,2.656-3.933,5.106-3.572
			c1.085,0.162,1.712,0.613,2.28,1.1c0.752-0.752,1.497-1.494,2.257-2.259c-0.187-0.134-0.613-0.57-1.374-1.011
			c-1.14-0.658-2.368-0.988-3.682-1.002c-0.248-0.002-0.497,0.012-0.742,0.024c-0.435,0.017-0.862,0.092-1.279,0.198
			c-1.679,0.429-3.072,1.31-4.164,2.655c-1.05,1.292-1.613,2.778-1.716,4.435c-0.045,0.703,0.008,1.402,0.163,2.089
			c0.437,1.922,1.445,3.476,3.037,4.64c1.232,0.902,2.621,1.384,4.142,1.468c0.858,0.046,1.708-0.034,2.544-0.252
			c1.556-0.407,2.848-1.218,3.817-2.511c1.407-1.868,1.747-4.266,1.333-6.542C26.732,23.648,24.306,23.648,21.872,23.648z"/>
		<polygon fill="#999999" points="38.559,23.749 35.93,23.749 35.93,21.119 35.93,21.042 35.853,21.042 33.889,21.042 
			33.811,21.042 33.811,21.119 33.811,23.749 31.181,23.749 31.105,23.749 31.105,23.825 31.105,25.789 31.105,25.867 
			31.181,25.867 33.811,25.867 33.811,28.498 33.811,28.576 33.889,28.576 35.853,28.576 35.93,28.576 35.93,28.498 35.93,25.867 
			38.559,25.867 38.638,25.867 38.638,25.789 38.638,23.825 38.638,23.749 		"/>
	</g>
</g>
</svg>
