<?xml version="1.0" encoding="utf-8"?>
<!-- Generator: Adobe Illustrator 16.0.0, SVG Export Plug-In . SVG Version: 6.00 Build 0)  -->
<!DOCTYPE svg PUBLIC "-//W3C//DTD SVG 1.1//EN" "http://www.w3.org/Graphics/SVG/1.1/DTD/svg11.dtd">
<svg version="1.1" id="Layer_1" xmlns="http://www.w3.org/2000/svg" xmlns:xlink="http://www.w3.org/1999/xlink" x="0px" y="0px"
	 width="50px" height="50px" viewBox="0 0 50 50" enable-background="new 0 0 50 50" xml:space="preserve">
<g>
	<g>
		<path fill="#999999" d="M46.398,18.047c3.012,9.271-0.289,19.426-8.174,25.154c-7.885,5.729-18.563,5.729-26.449,0
			C3.889,37.473,0.59,27.317,3.604,18.047C6.615,8.779,15.252,2.502,24.998,2.502C34.748,2.502,43.385,8.779,46.398,18.047z
			 M24.998,4.528c-8.865,0-16.727,5.711-19.467,14.146c-2.742,8.435,0.26,17.675,7.436,22.888c7.176,5.214,16.891,5.214,24.066,0
			c7.176-5.213,10.178-14.453,7.438-22.888C41.729,10.239,33.869,4.528,24.998,4.528z"/>
	</g>
	<g>
		<path fill="#999999" d="M17.953,21.569h3.703v11.895h-3.703V21.569z M19.805,15.657c1.184,0,2.145,0.962,2.145,2.143
			c0,1.184-0.961,2.146-2.145,2.146c-1.186,0-2.145-0.962-2.145-2.146C17.66,16.619,18.619,15.657,19.805,15.657"/>
		<path fill="#999999" d="M23.977,21.569h3.549v1.626h0.047c0.494-0.935,1.701-1.921,3.5-1.921c3.742,0,4.436,2.461,4.436,5.665
			v6.524h-3.695v-5.782c0-1.38-0.029-3.154-1.922-3.154c-1.926,0-2.219,1.501-2.219,3.052v5.885h-3.695V21.569z"/>
	</g>
</g>
</svg>
