<?xml version="1.0" encoding="utf-8"?>
<!-- Generator: Adobe Illustrator 16.0.0, SVG Export Plug-In . SVG Version: 6.00 Build 0)  -->
<!DOCTYPE svg PUBLIC "-//W3C//DTD SVG 1.1//EN" "http://www.w3.org/Graphics/SVG/1.1/DTD/svg11.dtd">
<svg version="1.1" id="Layer_1" xmlns="http://www.w3.org/2000/svg" xmlns:xlink="http://www.w3.org/1999/xlink" x="0px" y="0px"
	 width="50px" height="50px" viewBox="0 0 50 50" enable-background="new 0 0 50 50" xml:space="preserve">
<g>
	<g>
		<path fill="#999999" d="M46.398,18.047c3.01,9.271-0.289,19.426-8.172,25.154c-7.887,5.729-18.564,5.729-26.451,0
			C3.891,37.473,0.592,27.317,3.604,18.047C6.615,8.777,15.254,2.502,25,2.502S43.387,8.777,46.398,18.047z M25,4.528
			c-8.869,0-16.729,5.711-19.469,14.146s0.262,17.675,7.436,22.888c7.178,5.214,16.891,5.214,24.068,0
			c7.172-5.213,10.174-14.453,7.436-22.888C41.73,10.239,33.869,4.528,25,4.528z"/>
	</g>
	<path fill-rule="evenodd" clip-rule="evenodd" fill="#999999" d="M21.668,29.881c-2.266-0.079-3.684-1.706-4.057-3.027
		c0.631,0.121,1.25,0.097,1.869-0.056c0.014-0.003,0.031-0.015,0.063-0.029c-1.229-0.285-2.176-0.941-2.834-2.001
		c-0.436-0.703-0.645-1.474-0.639-2.318c0.613,0.326,1.254,0.51,1.939,0.528c-0.922-0.666-1.541-1.534-1.793-2.646
		c-0.252-1.109-0.09-2.163,0.467-3.158c2.361,2.78,5.352,4.307,8.994,4.558c-0.023-0.174-0.051-0.324-0.068-0.478
		c-0.121-1.026,0.084-1.983,0.637-2.853c0.693-1.088,1.688-1.765,2.959-1.972c1.467-0.24,2.746,0.178,3.818,1.217
		c0.07,0.07,0.131,0.092,0.232,0.07c0.896-0.196,1.74-0.52,2.535-0.978c0.02-0.011,0.039-0.02,0.059-0.029
		c0.004-0.002,0.012-0.002,0.029-0.002c-0.344,1.014-0.975,1.797-1.869,2.374c0.848-0.094,1.654-0.317,2.432-0.654
		c0.006,0.007,0.01,0.015,0.018,0.02c-0.168,0.219-0.33,0.442-0.502,0.654c-0.463,0.57-0.994,1.072-1.586,1.507
		c-0.049,0.037-0.074,0.071-0.07,0.138c0.021,0.646-0.002,1.294-0.082,1.936c-0.168,1.355-0.545,2.648-1.125,3.883
		c-0.598,1.275-1.377,2.427-2.357,3.438c-1.662,1.717-3.662,2.826-5.994,3.341c-0.799,0.176-1.611,0.264-2.428,0.288
		c-2.516,0.073-4.844-0.552-6.98-1.873c-0.029-0.017-0.055-0.035-0.102-0.066c1.521,0.163,2.969-0.031,4.361-0.601
		C20.334,30.786,21.02,30.389,21.668,29.881z"/>
</g>
</svg>
