<?xml version="1.0" encoding="utf-8"?>
<!-- Generator: Adobe Illustrator 16.0.0, SVG Export Plug-In . SVG Version: 6.00 Build 0)  -->
<!DOCTYPE svg PUBLIC "-//W3C//DTD SVG 1.1//EN" "http://www.w3.org/Graphics/SVG/1.1/DTD/svg11.dtd">
<svg version="1.1" id="Layer_1" xmlns="http://www.w3.org/2000/svg" xmlns:xlink="http://www.w3.org/1999/xlink" x="0px" y="0px"
	 width="50px" height="50px" viewBox="0 0 50 50" enable-background="new 0 0 50 50" xml:space="preserve">
<g>
	<path fill="#999999" d="M2.5,25c0-6.21,2.198-11.514,6.593-15.908C13.487,4.697,18.791,2.5,25.001,2.5s11.514,2.197,15.908,6.592
		C45.303,13.486,47.5,18.789,47.5,25s-2.197,11.514-6.591,15.909c-4.395,4.395-9.698,6.592-15.908,6.592s-11.514-2.197-15.908-6.592
		S2.5,31.21,2.5,25L2.5,25z M4.962,25c0,5.507,1.963,10.224,5.889,14.151c3.926,3.925,8.643,5.889,14.15,5.889
		c5.507,0,10.224-1.964,14.15-5.889c3.925-3.927,5.888-8.644,5.888-14.151c0-5.508-1.963-10.224-5.888-14.15
		c-3.927-3.926-8.644-5.889-14.15-5.889c-5.508,0-10.225,1.963-14.15,5.889S4.962,19.492,4.962,25L4.962,25z M11.29,29.834
		c-0.117-0.118-0.117-0.234,0-0.352c0.234-0.234,0.527-0.322,0.879-0.264c0.352,0.058,0.557,0.117,0.615,0.176
		c0.41,0.176,0.864,0.571,1.362,1.187s0.894,1.04,1.186,1.274c1.406,1.171,2.844,1.259,4.308,0.264
		c0.117-0.41,0.308-0.762,0.571-1.055c0.264-0.294,0.513-0.498,0.747-0.615c0.234-0.118,0.645-0.294,1.23-0.527
		c-1.934-0.176-3.501-0.514-4.703-1.011c-1.2-0.499-2.153-1.129-2.856-1.89c-0.937-1.055-1.508-2.432-1.713-4.131
		s-0.073-3.252,0.396-4.658c0.352-0.879,0.85-1.67,1.493-2.373c-0.468-1.464-0.38-3.135,0.264-5.009
		c1.876,0.117,3.575,0.761,5.099,1.933c2.93-0.761,5.977-0.791,9.14-0.088c0.41-0.293,1.041-0.659,1.89-1.098
		c0.85-0.439,1.919-0.689,3.209-0.747c0.234,0.645,0.396,1.406,0.483,2.285c0.088,0.879,0.044,1.7-0.132,2.461
		c1.347,1.406,2.05,3.282,2.109,5.625c0,1.875-0.323,3.428-0.967,4.659c-0.645,1.231-1.787,2.255-3.429,3.077
		c-1.112,0.527-2.578,0.849-4.394,0.967c0.82,0.409,1.42,0.835,1.801,1.274c0.382,0.439,0.63,1.128,0.747,2.065v2.768
		c0,0,0.03,0.894,0.088,2.682c0.176,0.292,0.382,0.541,0.615,0.747c0.234,0.204,0.439,0.352,0.615,0.439s0.234,0.22,0.176,0.396
		c-0.058,0.176-0.293,0.264-0.703,0.264c-0.996,0-1.787-0.352-2.373-1.055c-0.175-0.294-0.263-0.646-0.263-1.055v-4.219
		c0-0.47-0.118-0.807-0.352-1.011c-0.234-0.206-0.47-0.338-0.703-0.396v5.537c0,0.995,0.117,1.64,0.352,1.934
		c0.233,0.291,0.381,0.585,0.439,0.879c0.058,0.058,0.014,0.102-0.132,0.132c-0.146,0.027-0.396-0.017-0.747-0.132
		c-0.762-0.176-1.289-0.571-1.582-1.187c-0.294-0.615-0.439-1.274-0.439-1.978v-5.449h-1.143v5.449c0,0.703-0.146,1.376-0.439,2.021
		c-0.41,0.818-1.172,1.258-2.285,1.318c-0.176-0.061-0.264-0.118-0.264-0.176c0.059-0.061,0.234-0.352,0.527-0.879
		c0.059-0.118,0.132-0.352,0.22-0.703s0.132-0.763,0.132-1.23v-5.537c-0.234,0.058-0.454,0.189-0.659,0.396
		c-0.205,0.204-0.308,0.541-0.308,1.011v4.219c0,0.409-0.088,0.761-0.264,1.055c-0.527,0.703-1.318,1.055-2.373,1.055
		c-0.409,0-0.645-0.088-0.703-0.264c-0.058-0.118-0.044-0.22,0.044-0.308s0.22-0.192,0.396-0.308
		c0.176-0.118,0.294-0.206,0.352-0.264c0.234-0.176,0.41-0.412,0.527-0.703c0.176-0.235,0.22-0.851,0.132-1.846
		c-0.088-0.997-0.103-1.642-0.044-1.935c-1.523,0.527-3.077,0.264-4.658-0.79c-0.469-0.47-0.938-1.143-1.406-2.021
		C13.048,31.474,12.345,30.713,11.29,29.834L11.29,29.834z"/>
</g>
</svg>
